<mxfile host="app.diagrams.net" modified="2023-12-29T08:34:35.091Z" agent="Mozilla/5.0 (Windows NT 10.0; Win64; x64) AppleWebKit/537.36 (KHTML, like Gecko) Chrome/112.0.0.0 Safari/537.36" version="22.1.15" etag="sqa545klTTfKHsNyd1AA" type="github">
  <diagram name="第 1 页" id="GzbF6Zn4fus2bF5cDDy5">
    <mxGraphModel>
      <root>
        <mxCell id="0" />
        <mxCell id="1" parent="0" />
      </root>
    </mxGraphModel>
  </diagram>
</mxfile>
